Coordinates
version=1
nRows=11
nColumns=40
inDegrees=yes

Units are S.I. units (second, meters, Newtons, ...)
Angles are in degrees.

endheader
time	pelvis_tilt	pelvis_list	pelvis_rotation	pelvis_tx	pelvis_ty	pelvis_tz	hip_flexion_r	hip_adduction_r	hip_rotation_r	knee_angle_r	knee_angle_r_beta	ankle_angle_r	subtalar_angle_r	mtp_angle_r	hip_flexion_l	hip_adduction_l	hip_rotation_l	knee_angle_l	knee_angle_l_beta	ankle_angle_l	subtalar_angle_l	mtp_angle_l	lumbar_extension	lumbar_bending	lumbar_rotation	arm_flex_r	arm_add_r	arm_rot_r	elbow_flex_r	pro_sup_r	wrist_flex_r	wrist_dev_r	arm_flex_l	arm_add_l	arm_rot_l	elbow_flex_l	pro_sup_l	wrist_flex_l	wrist_dev_l
     10.75100000	     -5.29040307	     -4.66785697	    -11.54805947	      0.90781375	      0.92789541	      0.43967252	     27.47768310	     -0.81692650	     -5.91071919	     26.58312784	     26.58312784	      4.95285977	     -1.70014049	     -2.92998216	      8.15784760	     -2.34704855	    -11.21740517	     20.16995984	     20.16995984	     19.49354693	    -14.62416874	      5.80409482	    -10.69377162	      8.04935820	      0.96106809	    -16.67128898	    -12.63073343	    -18.28465012	     26.16785971	     46.79533746	      0.00000000	      0.00000000	     34.79724093	    -22.44929950	      1.13993221	     57.79841666	     47.02875366	      0.00000000	      0.00000000
     10.77200000	     -5.20805167	     -4.41322028	    -12.25476556	      0.90688892	      0.92746194	      0.44243866	     26.50762981	     -0.53074192	     -6.82821916	     22.60207458	     22.60207458	      4.83349099	      2.53471876	     -1.91032227	      7.21961284	     -2.13992489	    -12.10244415	     19.41296610	     19.41296610	     19.52587117	    -14.23276626	      5.12452393	    -10.82845855	      7.93860505	      1.10965114	    -17.12976699	    -12.85419079	    -18.73557205	     27.10328892	     46.78086626	      0.00000000	      0.00000000	     35.59734110	    -23.16171605	      0.03251040	     59.44758933	     47.14812233	      0.00000000	      0.00000000
     10.79300000	     -5.30290229	     -4.08223353	    -12.92302843	      0.90610294	      0.92633704	      0.44543045	     26.05858635	     -0.27031535	     -7.59097062	     19.81372550	     19.81372550	      5.36620164	      6.08466077	      1.37455203	      6.56368275	     -1.89056531	    -12.87844843	     18.75562846	     18.75562846	     18.98928434	    -14.25782122	      3.07213720	    -10.71323842	      7.82163951	      0.76451556	    -17.47685198	    -12.82266460	    -19.96974754	     29.78811436	     46.72183382	      0.00000000	      0.00000000	     35.26815159	    -23.83808250	     -2.81749027	     62.46727777	     47.41810405	      0.00000000	      0.00000000
     10.81400000	     -5.28607990	     -3.84018300	    -13.48462689	      0.90571111	      0.92525191	      0.44867461	     25.44050091	      0.10999028	     -7.98526923	     17.49670234	     17.49670234	      5.03658503	      8.28832575	      2.17620613	      5.90435126	     -1.72780892	    -13.47032230	     18.44716668	     18.44716668	     19.27148902	    -14.09294279	      2.76113092	    -10.58384788	      7.74881430	      0.96026732	    -17.26305663	    -13.00595622	    -20.08552088	     30.11502054	     46.71178403	      0.00000000	      0.00000000	     36.07719911	    -24.30894797	     -3.25157450	     63.07842215	     47.46661080	      0.00000000	      0.00000000
     10.83500000	     -5.30152503	     -3.58795375	    -13.96837510	      0.90560377	      0.92404570	      0.45209776	     25.04993575	      0.41785042	     -8.19396372	     16.09574829	     16.09574829	      4.77841972	      9.71169227	      2.60804997	      5.31295781	     -1.56481726	    -13.97186749	     18.21366556	     18.21366556	     19.56341616	    -13.97716676	      2.48625548	    -10.40577929	      7.66948914	      1.12025464	    -16.87460813	    -13.07063106	    -20.19499384	     30.57054216	     46.69861263	      0.00000000	      0.00000000	     36.68707719	    -24.69239860	     -3.74233959	     63.68791453	     47.51809930	      0.00000000	      0.00000000
     10.85600000	     -5.23744609	     -3.42336355	    -14.37563343	      0.90595048	      0.92298807	      0.45568097	     24.73021410	      0.67742083	     -8.38142403	     15.56467149	     15.56467149	      4.63495447	     10.66980113	      2.42172451	      4.55576766	     -1.47759797	    -14.51123507	     17.91402419	     17.91402419	     19.84044859	    -13.70762044	      2.10922332	    -10.33203006	      7.72910250	      1.20419921	    -16.38498052	    -13.19852760	    -20.42796455	     31.34455755	     46.67709643	      0.00000000	      0.00000000	     36.87857939	    -24.99529113	     -4.71990763	     64.64547866	     47.60723853	      0.00000000	      0.00000000
     10.87700000	     -5.21863438	     -3.28858910	    -14.66097227	      0.90655334	      0.92194893	      0.45951581	     24.57241235	      0.96219721	     -8.00923035	     15.63441258	     15.63441258	      4.11440487	     10.30115419	      0.59202746	      3.89768790	     -1.45505349	    -14.87680158	     17.73655866	     17.73655866	     20.06975403	    -13.51866346	      1.70905302	    -10.16451987	      7.79292407	      0.93691295	    -15.70971875	    -13.26461727	    -20.78559865	     32.38112525	     46.64014376	      0.00000000	      0.00000000	     36.43811417	    -25.20384158	     -6.71439917	     66.25912313	     47.77319169	      0.00000000	      0.00000000
     10.89800000	     -5.11391533	     -3.24368082	    -14.80640595	      0.90750754	      0.92126163	      0.46341902	     24.45172654	      1.16580370	     -7.73746900	     16.39030835	     16.39030835	      4.29515809	      9.84429537	      0.00528330	      3.08653525	     -1.46686491	    -15.00310520	     17.49356749	     17.49356749	     20.33855495	    -13.46561790	      1.71787062	    -10.06720938	      7.94562514	      1.09552528	    -15.04398293	    -13.35700666	    -20.77659882	     32.60476827	     46.63219204	      0.00000000	      0.00000000	     36.69914020	    -25.27725797	     -6.92457705	     66.47630230	     47.79315372	      0.00000000	      0.00000000
     10.91900000	     -4.99736695	     -3.14579018	    -14.85279777	      0.90876371	      0.92075249	      0.46753526	     24.41265432	      1.30283706	     -7.11766634	     17.51898439	     17.51898439	      4.48203152	      8.61384898	     -1.02422480	      2.18466578	     -1.42657463	    -15.17557593	     17.08958591	     17.08958591	     20.57052314	    -13.20814119	      1.82227799	     -9.93271668	      8.01456201	      1.16642115	    -14.37418934	    -13.40114528	    -20.80164231	     32.86643515	     46.62321166	      0.00000000	      0.00000000	     36.69043258	    -25.27408509	     -7.37048585	     66.83629671	     47.82961020	      0.00000000	      0.00000000
     10.94000000	     -4.87238509	     -3.10274206	    -14.76340513	      0.91027737	      0.92046688	      0.47185036	     24.31034888	      1.48871215	     -6.31803608	     18.72797271	     18.72797271	      4.69512147	      6.95597368	     -2.19794887	      1.26668650	     -1.47206795	    -15.25934361	     16.71164972	     16.71164972	     20.78769046	    -12.87001788	      2.00749360	     -9.80812147	      8.10946341	      1.13364417	    -13.69230322	    -13.43048309	    -20.85108243	     33.15452421	     46.61392430	      0.00000000	      0.00000000	     36.49367456	    -25.19195072	     -7.95468239	     67.30505235	     47.87559290	      0.00000000	      0.00000000
     10.96100000	     -4.87358866	     -3.28563132	    -14.45718708	      0.91196523	      0.92039862	      0.47615315	     23.96187838	      1.77473027	     -6.28814775	     19.46348651	     19.46348651	      5.12474449	      6.37106480	     -2.61599814	      0.56192222	     -1.84123251	    -15.05799373	     16.57128465	     16.57128465	     20.90869104	    -12.72309343	      2.06971199	     -9.52459584	      8.48518296	      1.13131084	    -13.12972128	    -13.46254842	    -20.84307248	     33.36915488	     46.60778123	      0.00000000	      0.00000000	     36.33745257	    -24.84353930	     -7.95595555	     67.41022445	     47.87561219	      0.00000000	      0.00000000
